<?xml version="1.0"?>
<svg xmlns="http://www.w3.org/2000/svg" xmlns:xlink="http://www.w3.org/1999/xlink" version="1.1" id="Capa_1" x="0px" y="0px" viewBox="0 0 215.039 215.039" style="enable-background:new 0 0 215.039 215.039;" xml:space="preserve" width="512px" height="512px" class=""><g><polyline style="fill:#FFFFFF;" points="177.956,130.6 177.493,131.573 81.92,131.573 71.68,59.808 109.227,73.478 132.997,59.808   150.187,76.895 211.627,59.808 187.549,110.429 " data-original="#FFFFFF" class=""/><path style="fill:#49BFEF" d="M177.493,134.988H81.92c-1.7,0-3.139-1.249-3.379-2.932l-10.24-71.767  c-0.169-1.186,0.297-2.377,1.229-3.132c0.932-0.756,2.193-0.966,3.318-0.556l36.053,13.126l22.395-12.879  c1.335-0.768,3.017-0.548,4.108,0.538l15.782,15.686l59.527-16.555c1.283-0.362,2.666,0.067,3.526,1.092  c0.86,1.024,1.044,2.454,0.469,3.662l-24.076,50.621c-0.811,1.698-2.845,2.43-4.548,1.615c-1.703-0.809-2.427-2.845-1.616-4.548  l20.862-43.86l-54.228,15.08c-1.179,0.324-2.451-0.002-3.321-0.869l-15.34-15.249l-21.511,12.37  c-0.874,0.502-1.925,0.594-2.869,0.249L75.865,64.96l9.018,63.198h90.685c0.995-0.971,2.524-1.277,3.855-0.645  c1.703,0.811,2.427,2.845,1.618,4.548l-0.463,0.975C180.011,134.229,178.811,134.988,177.493,134.988z" data-original="#602F75" class="" data-old_color="#49bfef"/><path style="fill:#FFFFFF;" d="M177.487,152.079H81.925c-5.659,0-10.247-4.588-10.247-10.247v-0.012  c0-5.659,4.588-10.247,10.247-10.247h95.561c5.659,0,10.247,4.588,10.247,10.247v0.012  C187.733,147.491,183.146,152.079,177.487,152.079z" data-original="#FFFFFF" class=""/><path style="fill:#49BFEF" d="M177.488,155.49H81.927c-7.532,0-13.658-6.127-13.658-13.658c0-7.545,6.127-13.672,13.658-13.672  h95.561c7.532,0,13.658,6.127,13.658,13.658C191.147,149.365,185.02,155.49,177.488,155.49z M81.925,134.988  c-3.768,0-6.832,3.065-6.832,6.832c0,3.78,3.065,6.845,6.832,6.845h95.561c3.768,0,6.832-3.065,6.832-6.832  c0-3.78-3.065-6.845-6.832-6.845H81.925z" data-original="#602F75" class="" data-old_color="#49bfef"/><path style="fill:#EAEAEA;" d="M157.013,202.485L157.013,202.485c-17.19,5.378-37.424,5.378-54.613,0l0,0v-29.902h54.613V202.485z" data-original="#EAEAEA" class=""/><path style="fill:#49BFEF" d="M129.707,209.906c-9.73,0-19.458-1.388-28.326-4.161c-1.423-0.447-2.394-1.765-2.394-3.258v-29.903  c0-1.884,1.529-3.413,3.413-3.413h54.613c1.884,0,3.413,1.529,3.413,3.413v29.903c0,1.493-0.969,2.811-2.394,3.258  C149.164,208.518,139.436,209.906,129.707,209.906z M105.813,199.934c15.143,4.21,32.643,4.21,47.787,0v-23.938h-47.787V199.934z   M157.013,202.487h0.017H157.013z" data-original="#602F75" class="" data-old_color="#49bfef"/><path style="fill:#FFFFFF;" d="M160.869,100.817H97.162c-8.417,0-15.242,6.823-15.242,15.242v25.825  c0,26.392,21.395,47.787,47.787,47.787l0,0c26.392,0,47.787-21.395,47.787-47.787v-24.441  C177.493,108.26,170.051,100.817,160.869,100.817z" data-original="#FFFFFF" class=""/><path style="fill:#49BFEF" d="M129.707,193.085c-28.232,0-51.2-22.968-51.2-51.2v-25.827c0-10.286,8.368-18.656,18.656-18.656  h63.706c11.049,0,20.038,8.989,20.038,20.038v24.443C180.907,170.116,157.938,193.085,129.707,193.085z M97.162,104.229  c-6.523,0-11.829,5.306-11.829,11.829v25.827c0,24.468,19.907,44.373,44.373,44.373s44.373-19.905,44.373-44.373v-24.443  c0-7.286-5.927-13.211-13.211-13.211H97.162V104.229z" data-original="#602F75" class="" data-old_color="#49bfef"/><ellipse style="fill:#00E7FF" cx="109.227" cy="128.153" rx="13.653" ry="13.67" data-original="#00E7FF" class=""/><path style="fill:#49BFEF" d="M109.227,145.24c-9.411,0-17.067-7.663-17.067-17.084s7.656-17.084,17.067-17.084  s17.067,7.663,17.067,17.084S118.637,145.24,109.227,145.24z M109.227,117.899c-5.647,0-10.24,4.601-10.24,10.257  s4.593,10.257,10.24,10.257s10.24-4.601,10.24-10.257S114.874,117.899,109.227,117.899z" data-original="#602F75" class="" data-old_color="#49bfef"/><ellipse style="fill:#00E7FF" cx="150.187" cy="128.153" rx="13.653" ry="13.67" data-original="#00E7FF" class=""/><g>
	<path style="fill:#49BFEF" d="M150.187,145.24c-9.411,0-17.067-7.663-17.067-17.084s7.656-17.084,17.067-17.084   c9.411,0,17.067,7.663,17.067,17.084S159.597,145.24,150.187,145.24z M150.187,117.899c-5.647,0-10.24,4.601-10.24,10.257   s4.593,10.257,10.24,10.257s10.24-4.601,10.24-10.257S155.834,117.899,150.187,117.899z" data-original="#602F75" class="" data-old_color="#49bfef"/>
	<path style="fill:#49BFEF" d="M146.773,117.899h-37.547c-1.884,0-3.413-1.529-3.413-3.413c0-1.884,1.529-3.413,3.413-3.413h37.547   c1.884,0,3.413,1.529,3.413,3.413C150.187,116.37,148.658,117.899,146.773,117.899z" data-original="#602F75" class="" data-old_color="#49bfef"/>
</g><path style="fill:#FFFFFF;" d="M30.933,35.839v13.715H54.4V35.839c0-3.301,2.27-5.975,5.069-5.975h1.971V18.798H23.893v11.066h1.971  C28.663,29.864,30.933,32.54,30.933,35.839z" data-original="#FFFFFF" class=""/><path style="fill:#49BFEF" d="M54.4,52.969H30.933c-1.884,0-3.413-1.529-3.413-3.413V35.839c0-1.466-0.874-2.562-1.655-2.562  h-1.971c-1.884,0-3.413-1.529-3.413-3.413V18.798c0-1.884,1.529-3.413,3.413-3.413H61.44c1.884,0,3.413,1.529,3.413,3.413v11.066  c0,1.884-1.529,3.413-3.413,3.413h-1.971c-0.782,0-1.655,1.096-1.655,2.562v13.716C57.813,51.442,56.284,52.969,54.4,52.969z   M34.347,46.142h16.64V35.839c0-4.634,3.048-8.492,7.04-9.254v-4.374h-30.72v4.374c3.992,0.761,7.04,4.62,7.04,9.254V46.142z" data-original="#602F75" class="" data-old_color="#49bfef"/><path style="fill:#359DEF" d="M30.933,49.556v95.973c0,8.414,4.48,15.928,10.581,16.727c6.997,0.916,12.885-6.615,12.885-16.036  V49.556L30.933,49.556L30.933,49.556z" data-original="#EA3457" class="" data-old_color="#82AED1"/><path style="fill:#49BFEF" d="M42.651,165.742c-0.526,0-1.053-0.036-1.58-0.104c-7.724-1.012-13.551-9.656-13.551-20.111V49.556  c0-1.884,1.529-3.413,3.413-3.413H54.4c1.884,0,3.413,1.529,3.413,3.413v96.664c0,6.496-2.461,12.532-6.584,16.15  C48.717,164.575,45.72,165.742,42.651,165.742z M34.347,52.969v92.558c0,6.808,3.413,12.793,7.61,13.341  c2.084,0.28,3.748-0.736,4.768-1.63c2.628-2.307,4.262-6.53,4.262-11.02V52.967h-16.64V52.969z" data-original="#602F75" class="" data-old_color="#49bfef"/><g>
	<ellipse style="fill:#BCBC29" cx="42.657" cy="112.779" rx="2.415" ry="2.415" data-original="#FFE600" class="active-path" data-old_color="#F0F0ED"/>
	<path style="fill:#BCBC29" d="M42.667,118.607c-1.558,0-3.023-0.606-4.123-1.712c-2.268-2.27-2.268-5.967,0.002-8.24   c2.202-2.2,6.042-2.2,8.243,0c2.27,2.273,2.27,5.97,0,8.243C45.689,118.002,44.225,118.607,42.667,118.607z M42.667,111.781   c-0.265,0-0.524,0.108-0.71,0.295c-0.386,0.386-0.386,1.019,0.002,1.406c0.374,0.37,1.043,0.37,1.417,0   c0.387-0.389,0.387-1.022,0-1.41C43.191,111.89,42.931,111.781,42.667,111.781z" data-original="#FFE600" class="active-path" data-old_color="#F0F0ED"/>
	<ellipse style="fill:#BCBC29" cx="42.669" cy="75.195" rx="2.415" ry="2.415" data-original="#FFE600" class="active-path" data-old_color="#F0F0ED"/>
	<path style="fill:#BCBC29" d="M42.667,81.016c-1.556,0-3.021-0.608-4.122-1.708c-2.27-2.273-2.27-5.97,0-8.243   c2.202-2.2,6.042-2.2,8.243,0c2.27,2.273,2.27,5.97,0,8.243C45.687,80.407,44.223,81.016,42.667,81.016z M42.667,74.19   c-0.263,0-0.522,0.106-0.708,0.292c-0.387,0.389-0.387,1.022,0,1.41c0.374,0.37,1.043,0.37,1.417,0c0.387-0.389,0.387-1.022,0-1.41   C43.189,74.296,42.929,74.19,42.667,74.19z" data-original="#FFE600" class="active-path" data-old_color="#F0F0ED"/>
</g><g>
	<path style="fill:#359DEF" d="M105.813,18.795c-1.884,0-3.413-1.529-3.413-3.413V8.546c0-1.884,1.529-3.413,3.413-3.413   c1.884,0,3.413,1.529,3.413,3.413v6.835C109.227,17.266,107.698,18.795,105.813,18.795z" data-original="#EA3457" class="" data-old_color="#82AED1"/>
	<path style="fill:#359DEF" d="M105.813,39.299c-1.884,0-3.413-1.529-3.413-3.413V29.05c0-1.884,1.529-3.413,3.413-3.413   c1.884,0,3.413,1.529,3.413,3.413v6.835C109.227,37.771,107.698,39.299,105.813,39.299z" data-original="#EA3457" class="" data-old_color="#82AED1"/>
	<path style="fill:#359DEF" d="M98.987,25.63H92.16c-1.884,0-3.413-1.529-3.413-3.413s1.529-3.413,3.413-3.413h6.827   c1.884,0,3.413,1.529,3.413,3.413S100.871,25.63,98.987,25.63z" data-original="#EA3457" class="" data-old_color="#82AED1"/>
	<path style="fill:#359DEF" d="M119.467,25.63h-6.827c-1.884,0-3.413-1.529-3.413-3.413s1.529-3.413,3.413-3.413h6.827   c1.884,0,3.413,1.529,3.413,3.413S121.351,25.63,119.467,25.63z" data-original="#EA3457" class="" data-old_color="#82AED1"/>
</g><g>
	<path style="fill:#BCBC29" d="M17.067,175.996c-1.884,0-3.413-1.529-3.413-3.413v-6.835c0-1.884,1.529-3.413,3.413-3.413   s3.413,1.529,3.413,3.413v6.835C20.48,174.468,18.951,175.996,17.067,175.996z" data-original="#FFE600" class="active-path" data-old_color="#F0F0ED"/>
	<path style="fill:#BCBC29" d="M17.067,196.501c-1.884,0-3.413-1.529-3.413-3.413v-6.835c0-1.884,1.529-3.413,3.413-3.413   s3.413,1.529,3.413,3.413v6.835C20.48,194.972,18.951,196.501,17.067,196.501z" data-original="#FFE600" class="active-path" data-old_color="#F0F0ED"/>
	<path style="fill:#BCBC29" d="M10.24,182.831H3.413c-1.884,0-3.413-1.529-3.413-3.413s1.529-3.413,3.413-3.413h6.827   c1.884,0,3.413,1.529,3.413,3.413S12.124,182.831,10.24,182.831z" data-original="#FFE600" class="active-path" data-old_color="#F0F0ED"/>
	<path style="fill:#BCBC29" d="M30.72,182.831h-6.827c-1.884,0-3.413-1.529-3.413-3.413s1.529-3.413,3.413-3.413h6.827   c1.884,0,3.413,1.529,3.413,3.413S32.604,182.831,30.72,182.831z" data-original="#FFE600" class="active-path" data-old_color="#F0F0ED"/>
</g><path style="fill:#00E7FF" d="M163.84,35.88c-7.528,0-13.653-6.13-13.653-13.665s6.125-13.667,13.653-13.667  c7.528,0,13.653,6.132,13.653,13.667S171.368,35.88,163.84,35.88z M163.84,15.376c-3.765,0-6.827,3.069-6.827,6.84  c0,3.77,3.062,6.839,6.827,6.839c3.765,0,6.827-3.069,6.827-6.839C170.667,18.445,167.605,15.376,163.84,15.376z" data-original="#00E7FF" class=""/><path style="fill:#359DEF" d="M58.027,203.337c-7.528,0-13.653-6.13-13.653-13.665s6.125-13.667,13.653-13.667  s13.653,6.132,13.653,13.667S65.555,203.337,58.027,203.337z M58.027,182.831c-3.765,0-6.827,3.069-6.827,6.84  c0,3.77,3.062,6.839,6.827,6.839s6.827-3.069,6.827-6.839C64.853,185.9,61.792,182.831,58.027,182.831z" data-original="#EA3457" class="" data-old_color="#82AED1"/></g> </svg>
